<?xml version="1.0" standalone="no"?>
<!DOCTYPE svg PUBLIC "-//W3C//DTD SVG 20010904//EN"
 "http://www.w3.org/TR/2001/REC-SVG-20010904/DTD/svg10.dtd">
<svg version="1.0" xmlns="http://www.w3.org/2000/svg"
 width="512.000000pt" height="512.000000pt" viewBox="0 0 512.000000 512.000000"
 preserveAspectRatio="xMidYMid meet">
<metadata>
Created by potrace 1.14, written by Peter Selinger 2001-2017
</metadata>
<g transform="translate(0.000000,512.000000) scale(0.100000,-0.100000)"
fill="#000000" stroke="none">
<path d="M1798 4775 c-2 -2 -32 -6 -68 -9 -244 -26 -550 -144 -722 -280 -14
-12 -41 -32 -59 -46 -55 -41 -201 -190 -255 -260 -140 -182 -236 -394 -284
-627 -21 -101 -31 -213 -33 -388 l-2 -100 -75 -1 c-133 -1 -181 -17 -243 -79
-76 -76 -72 -201 10 -276 32 -31 85 -59 108 -59 10 0 -12 -25 -50 -57 -94 -82
-120 -129 -119 -219 1 -89 33 -151 102 -195 51 -32 82 -40 171 -43 59 -3 90
-10 51 -13 -41 -3 -149 -65 -199 -114 -89 -87 -130 -193 -126 -320 4 -93 22
-151 70 -223 58 -88 151 -154 250 -180 l50 -12 1 -127 c2 -172 10 -235 43
-327 37 -105 83 -180 161 -260 91 -94 203 -161 315 -189 28 -7 59 -15 70 -18
11 -3 722 -7 1580 -8 1674 -3 1610 -5 1749 47 145 53 291 185 365 328 64 122
82 206 85 394 l2 159 52 13 c132 34 244 134 292 261 30 79 35 208 11 284 -43
135 -150 242 -286 285 l-40 13 35 1 c118 4 183 23 234 68 60 54 89 164 66 249
-11 39 -29 63 -92 124 -78 76 -79 77 -52 83 40 10 97 54 125 95 19 29 23 50
24 103 0 58 -4 72 -30 110 -47 67 -120 99 -237 103 -51 2 -95 4 -98 4 -3 1 -6
63 -7 139 -2 173 -8 240 -34 361 -72 335 -245 623 -514 856 -54 47 -219 153
-300 193 -138 68 -244 103 -420 139 -70 15 -178 17 -877 18 -439 1 -799 1
-800 0z"/>
</g>
</svg>
